<svg version="1.1" xmlns="http://www.w3.org/2000/svg" x="0px" y="0px"
	 width="100%" viewBox="0 0 449 259" enable-background="new 0 0 449 259" xml:space="preserve">
<defs>
  <filter id="glow" x="-20%" y="-20%" width="140%" height="140%">
    <feGaussianBlur in="SourceGraphic" stdDeviation="8" result="blur"/>
    <feFlood flood-color="#ffffff" flood-opacity="0.5"/>
    <feComposite in2="blur" operator="in"/>
    <feMerge>
      <feMergeNode/>
      <feMergeNode in="SourceGraphic"/>
    </feMerge>
  </filter>
</defs>
<g filter="url(#glow)">
<path fill="#020202" opacity="1.000000" stroke="none"
	d="
M193.000000,0.999999
	C224.354233,1.000000 255.708450,1.000000 287.690521,1.404721
	C305.996063,3.562633 323.704468,5.060741 341.337677,7.183586
	C349.374817,8.151167 357.332642,10.076811 365.204376,12.054019
	C379.876770,15.739427 394.750702,18.952467 408.982239,23.952045
	C419.191040,27.538433 428.682434,33.383152 438.112213,38.875660
	C442.538727,41.453941 446.065491,45.576992 450.000000,48.999992
	C450.000000,50.714359 450.000000,52.428715 449.611206,54.708595
	C448.484070,59.851543 447.527985,64.406258 447.047668,69.010597
	C445.527954,83.577888 439.865051,96.807220 434.096832,110.011147
	C431.758026,115.364799 427.984894,120.477486 427.187958,126.033127
	C425.826996,135.520538 426.813843,145.323090 425.842468,154.894623
	C425.014435,163.053604 423.012543,171.119507 421.120087,179.129745
	C420.488953,181.800964 419.190735,184.909225 417.169861,186.558624
	C406.024872,195.654785 394.849518,204.767456 383.119293,213.076401
	C373.276733,220.048248 363.030823,226.657196 352.294922,232.110672
	C337.879822,239.433029 322.994354,245.947830 307.069672,249.541031
	C294.496765,252.377945 281.921173,255.203278 269.336426,257.987000
	C265.910187,258.744873 262.446503,259.333618 259.000000,260.000000
	C240.979111,260.000000 222.958206,260.000000 204.329956,259.608765
	C187.822845,256.135529 171.749084,253.740173 156.074707,249.768692
	C141.818039,246.156403 127.934708,241.006195 114.010651,236.176865
	C108.297050,234.195175 102.776505,231.530197 97.399223,228.731979
	C86.253769,222.932129 74.935112,217.359436 64.301910,210.710983
	C53.931690,204.226959 44.244297,196.628326 34.457523,189.253113
	C32.541946,187.809540 30.514250,185.254333 30.286592,183.032684
	C28.609379,166.665039 27.388186,150.250870 25.974499,133.855576
	C25.883747,132.803085 25.616676,131.628342 25.038618,130.777512
	C21.094273,124.971909 16.131308,119.656677 13.252105,113.378357
	C9.345625,104.859970 6.814342,95.680832 4.077396,86.668434
	C2.631289,81.906593 1.999460,76.897476 1.000000,72.000000
	C1.000000,67.310745 1.000000,62.621487 1.343284,57.382290
	C10.653205,45.863773 22.954081,39.490299 35.391949,33.871387
	C46.834335,28.702200 58.882027,24.630493 70.989113,21.239405
	C84.638466,17.416340 98.687294,15.042446 112.499458,11.772487
	C134.750534,6.504655 157.511353,5.283867 180.126709,2.870453
	C184.435272,2.410661 188.709778,1.631701 193.000000,0.999999
M278.332550,127.851112
	C320.902954,125.551788 363.462494,122.993660 406.054535,121.211433
	C413.040466,120.919113 416.624207,117.962120 419.418671,112.775696
	C427.146362,98.433205 431.957397,83.068413 434.735413,67.054375
	C435.153625,64.643692 435.145905,62.159134 435.333313,59.733356
	C434.508118,59.406269 434.079285,59.137867 433.620331,59.068478
	C410.996887,55.647915 388.440979,51.636768 365.724670,49.017021
	C344.735962,46.596516 323.599884,44.928307 302.485443,44.221386
	C235.246399,41.970203 168.421494,48.383995 101.666222,55.249466
	C80.017418,57.475948 58.506588,61.039406 36.928631,63.961662
	C29.394884,64.981949 21.849060,65.913048 13.104624,67.040062
	C14.424441,76.514412 14.863883,86.054222 17.283356,95.062225
	C19.300446,102.572098 23.200632,109.706367 27.069803,116.553215
	C31.212652,123.884338 36.813484,128.836670 46.543926,128.797150
	C65.855049,128.718735 85.168022,129.971542 104.485657,130.458939
	C162.146317,131.913803 219.766388,130.394150 278.332550,127.851112
M325.014954,17.373030
	C308.570862,16.285437 292.136200,15.020558 275.680725,14.147741
	C243.018494,12.415301 210.370651,13.181041 177.821060,16.173603
	C154.667709,18.302288 131.484680,20.599941 108.524513,24.170265
	C92.396584,26.678169 76.533356,31.125383 60.724960,35.353542
	C52.523388,37.547157 44.522247,40.754578 36.758781,44.235943
	C30.823677,46.897419 25.403950,50.708191 19.754972,54.007740
	C19.961746,54.458786 20.168520,54.909828 20.375294,55.360874
	C23.634687,55.027691 26.931723,54.902897 30.146414,54.322235
	C39.771286,52.583729 49.327312,50.442776 58.976665,48.865433
	C80.410225,45.361771 101.929741,42.370052 123.331207,38.687241
	C156.258606,33.021019 189.528442,31.380392 222.793991,30.413376
	C266.791992,29.134369 310.691467,31.584654 354.368439,37.168465
	C377.769318,40.160110 401.109894,43.625771 424.468201,46.944519
	C427.868958,47.427700 431.216492,48.285442 435.908813,49.237816
	C433.027008,47.082634 431.371460,45.388638 429.365936,44.417294
	C414.266296,37.104061 398.660309,31.520470 382.249969,27.467136
	C363.628143,22.867563 344.705200,20.755909 325.014954,17.373030
M217.320511,168.914627
	C220.231949,177.925476 232.515900,180.616318 239.615997,171.453857
	C243.371582,166.607376 242.933075,161.047302 239.005966,156.610840
	C234.908112,151.981552 227.611237,150.302094 222.651962,152.846786
	C217.534729,155.472519 215.250732,161.699554 217.320511,168.914627
z"/>
<path fill="#FEFEFE" opacity="1.000000" stroke="none"
	d="
M277.851196,127.865189
	C219.766388,130.394150 162.146317,131.913803 104.485657,130.458939
	C85.168022,129.971542 65.855049,128.718735 46.543926,128.797150
	C36.813484,128.836670 31.212652,123.884338 27.069803,116.553215
	C23.200632,109.706367 19.300446,102.572098 17.283356,95.062225
	C14.863883,86.054222 14.424441,76.514412 13.104624,67.040062
	C21.849060,65.913048 29.394884,64.981949 36.928631,63.961662
	C58.506588,61.039406 80.017418,57.475948 101.666222,55.249466
	C168.421494,48.383995 235.246399,41.970203 302.485443,44.221386
	C323.599884,44.928307 344.735962,46.596516 365.724670,49.017021
	C388.440979,51.636768 410.996887,55.647915 433.620331,59.068478
	C434.079285,59.137867 434.508118,59.406269 435.333313,59.733356
	C435.145905,62.159134 435.153625,64.643692 434.735413,67.054375
	C431.957397,83.068413 427.146362,98.433205 419.418671,112.775696
	C416.624207,117.962120 413.040466,120.919113 406.054535,121.211433
	C363.462494,122.993660 320.902954,125.551788 277.851196,127.865189
z"/>
<path fill="#FBFBFB" opacity="1.000000" stroke="none"
	d="
M325.466919,17.452248
	C344.705200,20.755909 363.628143,22.867563 382.249969,27.467136
	C398.660309,31.520470 414.266296,37.104061 429.365936,44.417294
	C431.371460,45.388638 433.027008,47.082634 435.908813,49.237816
	C431.216492,48.285442 427.868958,47.427700 424.468201,46.944519
	C401.109894,43.625771 377.769318,40.160110 354.368439,37.168465
	C310.691467,31.584654 266.791992,29.134369 222.793991,30.413376
	C189.528442,31.380392 156.258606,33.021019 123.331207,38.687241
	C101.929741,42.370052 80.410225,45.361771 58.976665,48.865433
	C49.327312,50.442776 39.771286,52.583729 30.146414,54.322235
	C26.931723,54.902897 23.634687,55.027691 20.375294,55.360874
	C20.168520,54.909828 19.961746,54.458786 19.754972,54.007740
	C25.403950,50.708191 30.823677,46.897419 36.758781,44.235943
	C44.522247,40.754578 52.523388,37.547157 60.724960,35.353542
	C76.533356,31.125383 92.396584,26.678169 108.524513,24.170265
	C131.484680,20.599941 154.667709,18.302288 177.821060,16.173603
	C210.370651,13.181041 243.018494,12.415301 275.680725,14.147741
	C292.136200,15.020558 308.570862,16.285437 325.466919,17.452248
z"/>
<path fill="#FAFAFA" opacity="1.000000" stroke="none"
	d="
M217.170959,168.556183
	C215.250732,161.699554 217.534729,155.472519 222.651962,152.846786
	C227.611237,150.302094 234.908112,151.981552 239.005966,156.610840
	C242.933075,161.047302 243.371582,166.607376 239.615997,171.453857
	C232.515900,180.616318 220.231949,177.925476 217.170959,168.556183
z"/>
</g>
</svg>
